<svg id="svg" version="1.1" xmlns="http://www.w3.org/2000/svg" xmlns:xlink="http://www.w3.org/1999/xlink" width="400" height="400" viewBox="0, 0, 400,400"><g id="svgg"><path id="path0" d="M166.145 99.902 C 204.566 99.957,267.320 99.957,305.598 99.902 C 343.877 99.847,312.441 99.803,235.742 99.803 C 159.043 99.803,127.724 99.847,166.145 99.902 M94.748 104.514 C 94.601 105.298,94.559 106.017,94.654 106.113 C 94.750 106.208,94.948 105.645,95.095 104.861 C 95.243 104.077,95.285 103.358,95.189 103.262 C 95.094 103.167,94.895 103.730,94.748 104.514 M92.214 117.214 C 91.955 118.530,91.819 119.683,91.912 119.776 C 92.005 119.870,92.293 118.869,92.552 117.552 C 92.811 116.236,92.947 115.082,92.854 114.989 C 92.761 114.896,92.473 115.897,92.214 117.214 M115.137 116.316 C 106.711 116.415,106.250 116.459,106.250 117.161 C 106.250 117.568,105.540 121.652,104.673 126.236 C 101.640 142.267,99.251 154.969,97.263 165.625 C 96.162 171.533,95.165 176.763,95.049 177.246 L 94.837 178.125 100.739 178.125 C 103.985 178.125,106.641 178.056,106.641 177.971 C 106.641 177.887,106.899 176.525,107.214 174.944 C 111.125 155.351,113.672 141.941,113.672 140.942 C 113.672 140.266,113.740 139.787,113.823 139.876 C 114.204 140.285,114.446 146.351,114.688 161.621 L 114.950 178.125 119.495 178.125 L 124.040 178.125 128.304 167.090 C 130.650 161.021,133.870 152.627,135.461 148.438 C 138.431 140.617,138.982 139.420,138.516 141.797 C 138.369 142.549,137.811 145.537,137.275 148.438 C 136.740 151.338,135.253 159.086,133.971 165.654 C 132.689 172.223,131.641 177.716,131.641 177.861 C 131.641 178.006,134.258 178.125,137.458 178.125 L 143.275 178.125 144.121 173.535 C 144.587 171.011,145.935 163.848,147.116 157.617 C 148.297 151.387,150.485 139.785,151.977 131.836 C 153.470 123.887,154.773 117.163,154.872 116.895 C 155.014 116.513,153.065 116.406,145.928 116.406 C 138.987 116.406,136.758 116.523,136.616 116.895 C 134.609 122.163,124.219 151.158,124.219 151.491 C 124.219 151.745,124.087 151.953,123.926 151.953 C 123.765 151.954,123.765 146.021,123.926 138.770 C 124.087 131.519,124.175 123.477,124.121 120.898 L 124.023 116.211 115.137 116.316 M264.609 116.471 C 264.520 116.614,261.731 124.787,258.410 134.635 C 255.089 144.482,251.576 154.824,250.604 157.617 L 248.837 162.695 249.029 159.961 C 249.134 158.457,249.403 153.623,249.626 149.219 C 249.850 144.814,250.377 135.874,250.797 129.351 C 251.218 122.828,251.563 117.247,251.563 116.949 C 251.563 116.509,250.390 116.406,245.344 116.406 L 239.125 116.406 238.907 118.848 C 238.787 120.190,238.509 130.254,238.290 141.211 C 238.070 152.168,237.779 164.956,237.642 169.629 L 237.394 178.125 245.780 178.125 L 254.167 178.125 258.112 167.480 C 260.281 161.626,264.975 148.926,268.543 139.258 C 272.110 129.590,275.362 120.801,275.769 119.727 C 277.242 115.839,277.761 116.211,270.856 116.211 C 267.508 116.211,264.697 116.328,264.609 116.471 M169.350 116.774 C 169.124 117.140,163.783 132.314,153.489 161.837 C 150.507 170.389,147.964 177.552,147.839 177.755 C 147.698 177.982,150.163 178.125,154.221 178.125 L 160.831 178.125 161.888 174.316 C 162.469 172.222,163.107 169.980,163.305 169.336 L 163.667 168.164 168.943 168.283 L 174.219 168.402 174.219 173.263 L 174.219 178.125 180.273 178.125 L 186.328 178.125 186.328 175.293 C 186.327 170.155,187.083 128.440,187.287 122.363 L 187.487 116.406 178.532 116.406 C 173.362 116.406,169.481 116.561,169.350 116.774 M201.619 118.237 C 201.386 119.271,201.026 121.084,200.820 122.266 C 200.614 123.447,198.236 136.305,195.535 150.839 C 192.835 165.373,190.625 177.458,190.625 177.695 C 190.625 177.990,192.621 178.125,197.002 178.125 L 203.380 178.125 204.076 174.121 C 204.459 171.919,205.264 167.568,205.864 164.453 C 206.464 161.338,207.073 158.057,207.217 157.162 L 207.479 155.535 209.755 155.404 L 212.032 155.273 212.234 156.836 C 212.345 157.695,212.922 162.659,213.516 167.866 C 214.110 173.072,214.708 177.515,214.847 177.739 C 215.008 178.000,217.325 178.107,221.338 178.037 L 227.579 177.930 225.356 165.625 C 224.133 158.857,223.272 153.267,223.442 153.203 C 228.525 151.275,230.324 147.787,232.619 135.412 C 234.595 124.761,234.368 122.493,231.038 119.569 C 227.758 116.689,227.353 116.616,214.010 116.479 L 202.043 116.356 201.619 118.237 M281.641 116.798 C 281.641 117.013,280.845 121.363,279.873 126.466 C 278.101 135.769,275.413 149.879,272.080 167.383 C 271.098 172.539,270.199 177.065,270.082 177.441 C 269.882 178.084,270.726 178.125,284.099 178.125 L 298.329 178.125 299.216 173.340 C 299.704 170.708,300.252 168.159,300.433 167.676 L 300.762 166.797 292.756 166.797 L 284.751 166.797 284.953 165.918 C 285.064 165.435,285.598 162.666,286.140 159.766 C 286.682 156.865,287.213 154.097,287.320 153.613 C 287.512 152.746,287.596 152.734,293.911 152.734 L 300.308 152.734 301.163 147.949 C 301.634 145.317,302.104 142.856,302.208 142.480 C 302.382 141.850,301.909 141.797,296.120 141.797 C 290.403 141.797,289.844 141.736,289.843 141.113 C 289.843 140.737,290.389 137.577,291.057 134.090 L 292.271 127.751 299.921 127.645 L 307.572 127.539 308.045 125.000 C 308.305 123.604,308.778 121.099,309.095 119.434 L 309.672 116.406 295.656 116.406 C 286.557 116.406,281.641 116.544,281.641 116.798 M315.720 120.996 C 315.264 123.521,312.794 136.748,310.231 150.391 C 307.668 164.033,305.452 175.854,305.307 176.660 L 305.043 178.125 318.920 178.125 L 332.798 178.125 333.000 177.246 C 333.111 176.763,333.614 174.214,334.116 171.582 L 335.030 166.797 327.433 166.797 L 319.837 166.797 320.055 165.918 C 320.175 165.435,321.606 158.008,323.235 149.414 C 327.969 124.442,329.322 117.415,329.498 116.895 C 329.626 116.517,328.179 116.406,323.106 116.406 L 316.548 116.406 315.720 120.996 M91.211 121.875 C 91.061 122.763,91.020 123.572,91.120 123.672 C 91.220 123.772,91.419 123.122,91.563 122.227 C 91.706 121.331,91.747 120.523,91.653 120.429 C 91.560 120.336,91.361 120.987,91.211 121.875 M220.123 128.130 C 221.352 129.150,219.122 142.384,217.437 144.069 C 216.339 145.167,209.766 145.907,209.766 144.932 C 209.766 144.662,210.361 141.254,211.089 137.358 C 211.817 133.461,212.533 129.590,212.679 128.755 L 212.946 127.237 216.245 127.443 C 218.059 127.556,219.804 127.865,220.123 128.130 M175.321 144.670 L 174.844 157.422 171.065 157.422 L 167.286 157.422 171.436 144.576 C 173.719 137.511,175.634 131.772,175.692 131.824 C 175.751 131.876,175.584 137.657,175.321 144.670 M88.672 134.570 C 88.405 135.986,88.265 137.224,88.362 137.320 C 88.459 137.417,88.752 136.333,89.014 134.912 C 89.276 133.491,89.415 132.254,89.324 132.162 C 89.232 132.071,88.939 133.155,88.672 134.570 M367.405 142.795 C 367.257 143.579,367.215 144.299,367.311 144.394 C 367.406 144.490,367.605 143.926,367.752 143.142 C 367.899 142.358,367.941 141.639,367.846 141.543 C 367.750 141.448,367.552 142.011,367.405 142.795 M82.839 163.307 C 82.580 164.624,82.444 165.777,82.537 165.870 C 82.630 165.963,82.918 164.962,83.177 163.646 C 83.436 162.329,83.572 161.176,83.479 161.083 C 83.386 160.990,83.098 161.991,82.839 163.307 M361.523 171.094 C 361.373 171.982,361.332 172.791,361.433 172.891 C 361.533 172.991,361.732 172.341,361.875 171.445 C 362.018 170.550,362.059 169.741,361.966 169.648 C 361.873 169.555,361.674 170.205,361.523 171.094 M367.188 182.422 C 367.868 183.281,368.513 183.984,368.620 183.984 C 368.728 183.984,368.259 183.281,367.578 182.422 C 366.897 181.563,366.253 180.859,366.145 180.859 C 366.038 180.859,366.507 181.563,367.188 182.422 M38.477 186.719 C 38.326 187.607,38.286 188.416,38.386 188.516 C 38.486 188.616,38.685 187.966,38.828 187.070 C 38.971 186.175,39.012 185.366,38.919 185.273 C 38.826 185.180,38.627 185.830,38.477 186.719 M284.570 187.139 C 274.724 187.862,272.094 190.603,269.705 202.636 C 266.676 217.887,267.388 219.362,279.848 223.666 C 286.473 225.955,286.407 225.846,285.159 232.423 C 283.913 238.992,283.197 239.777,278.832 239.358 C 275.563 239.044,275.186 237.388,276.826 230.566 L 277.038 229.688 270.769 229.688 C 267.320 229.688,264.408 229.834,264.297 230.014 C 262.376 233.122,261.975 244.102,263.695 246.517 C 266.896 251.012,284.464 251.470,291.071 247.230 C 295.146 244.615,295.946 242.887,297.858 232.560 C 300.446 218.588,299.820 217.344,288.244 213.471 C 280.565 210.902,280.783 211.241,282.220 204.102 C 283.393 198.273,283.912 197.656,287.642 197.656 C 291.656 197.656,292.209 199.370,290.380 206.152 L 290.143 207.031 296.382 207.031 L 302.620 207.031 303.494 202.441 C 305.523 191.795,304.055 188.119,297.463 187.332 C 294.253 186.950,288.353 186.861,284.570 187.139 M324.365 187.114 C 315.085 187.911,312.324 190.895,309.910 202.734 C 306.973 217.140,307.777 219.192,317.773 222.826 C 319.922 223.607,322.434 224.521,323.356 224.857 C 326.304 225.931,326.469 226.574,325.301 232.477 C 324.000 239.060,322.891 240.089,317.995 239.262 C 315.499 238.841,315.356 237.589,316.997 230.566 L 317.202 229.688 310.814 229.688 L 304.426 229.688 303.376 235.059 C 301.022 247.105,303.709 250.000,317.248 250.000 C 332.102 250.000,335.352 247.322,338.109 232.813 C 340.791 218.697,340.151 217.202,329.989 213.854 C 323.303 211.651,321.902 210.986,321.625 209.883 C 321.427 209.094,322.568 201.994,323.292 199.507 C 323.607 198.428,325.542 197.656,327.936 197.656 C 332.143 197.656,332.312 198.190,330.639 206.152 L 330.454 207.031 336.724 207.031 C 341.402 207.031,343.030 206.907,343.138 206.543 C 343.916 203.923,345.323 194.682,345.101 193.650 C 343.905 188.095,337.271 186.004,324.365 187.114 M57.667 188.184 C 57.559 188.560,57.184 190.449,56.836 192.383 C 56.487 194.316,54.356 205.566,52.100 217.383 C 48.308 237.241,46.107 248.882,46.097 249.121 C 46.095 249.175,48.806 249.219,52.121 249.219 L 58.148 249.219 58.564 247.168 C 58.793 246.040,59.513 242.217,60.165 238.672 C 61.186 233.120,64.053 218.382,65.180 212.891 C 65.422 211.712,65.555 217.413,65.583 230.176 L 65.625 249.219 70.429 249.219 L 75.234 249.219 75.757 247.754 C 76.439 245.845,88.887 213.775,89.440 212.500 C 89.825 211.614,89.844 211.650,89.641 212.891 C 89.362 214.594,83.259 247.136,82.992 248.340 L 82.798 249.219 88.664 249.219 C 91.891 249.219,94.531 249.141,94.531 249.046 C 94.531 248.951,95.947 241.348,97.678 232.151 C 99.409 222.954,101.264 213.057,101.800 210.156 C 102.336 207.256,103.469 201.227,104.317 196.759 C 105.165 192.291,105.859 188.380,105.859 188.068 C 105.859 187.588,104.484 187.500,96.959 187.500 L 88.059 187.500 85.974 193.262 C 82.439 203.033,77.785 215.646,76.353 219.336 L 74.989 222.852 75.187 214.844 C 75.296 210.439,75.492 202.485,75.622 197.168 L 75.860 187.500 66.863 187.500 C 58.629 187.500,57.848 187.558,57.667 188.184 M120.594 188.184 C 120.484 188.560,117.413 197.305,113.769 207.617 C 110.126 217.930,105.424 231.289,103.321 237.305 C 101.219 243.320,99.416 248.462,99.317 248.730 C 99.176 249.108,100.554 249.219,105.410 249.219 L 111.686 249.219 112.507 246.387 C 112.958 244.829,113.639 242.588,114.020 241.406 L 114.712 239.258 120.088 239.149 L 125.463 239.040 125.181 244.129 L 124.900 249.219 131.200 249.219 C 137.470 249.219,137.500 249.215,137.508 248.340 C 137.513 247.856,137.772 235.332,138.085 220.508 C 138.398 205.684,138.658 192.192,138.663 190.527 L 138.672 187.500 129.733 187.500 C 121.557 187.500,120.777 187.558,120.594 188.184 M150.621 203.780 C 148.940 212.766,147.072 222.754,146.471 225.977 C 145.869 229.199,144.660 235.643,143.782 240.295 C 142.905 244.948,142.188 248.859,142.188 248.986 C 142.188 249.544,166.225 249.223,168.479 248.636 C 177.402 246.312,178.332 244.535,182.665 221.525 C 187.463 196.048,187.230 197.578,186.705 195.049 C 185.412 188.824,182.493 187.761,166.195 187.582 L 153.678 187.444 150.621 203.780 M195.898 187.988 C 195.803 188.257,194.145 196.914,192.212 207.227 C 190.280 217.539,187.726 231.112,186.537 237.388 C 185.348 243.664,184.375 248.893,184.375 249.009 C 184.375 249.124,187.151 249.219,190.543 249.219 L 196.711 249.219 197.412 245.020 C 197.798 242.710,199.116 235.583,200.340 229.181 C 202.396 218.437,203.125 215.904,203.125 219.503 C 203.125 220.275,204.004 227.143,205.078 234.766 C 206.152 242.388,207.031 248.758,207.031 248.922 C 207.031 249.085,209.917 249.219,213.444 249.219 L 219.857 249.219 220.252 247.363 C 220.859 244.513,231.641 188.110,231.641 187.786 C 231.641 187.629,228.740 187.500,225.195 187.500 C 221.650 187.500,218.750 187.644,218.750 187.819 C 218.750 187.994,217.959 192.609,216.992 198.073 C 216.026 203.537,214.795 210.501,214.258 213.547 C 213.721 216.594,213.281 219.486,213.281 219.973 C 213.281 223.174,212.342 218.005,210.342 203.809 L 208.046 187.500 202.057 187.500 C 197.619 187.500,196.025 187.626,195.898 187.988 M238.322 189.433 C 237.955 191.145,236.266 199.915,228.888 238.417 C 227.824 243.970,226.953 248.672,226.953 248.866 C 226.953 249.069,232.967 249.219,241.168 249.219 L 255.382 249.219 256.402 243.834 C 256.963 240.872,257.422 238.323,257.422 238.170 C 257.422 238.016,253.906 237.891,249.609 237.891 C 243.607 237.891,241.803 237.778,241.822 237.402 C 241.835 237.134,242.412 234.014,243.103 230.469 L 244.360 224.023 250.475 223.916 L 256.589 223.809 256.992 221.768 C 257.213 220.645,257.588 218.584,257.825 217.188 C 258.062 215.791,258.351 214.253,258.467 213.770 L 258.678 212.891 252.581 212.891 C 249.228 212.891,246.480 212.759,246.474 212.598 C 246.468 212.437,247.028 209.272,247.719 205.566 L 248.974 198.828 256.645 198.828 L 264.316 198.828 265.194 194.043 C 265.677 191.411,266.166 188.862,266.281 188.379 L 266.491 187.500 252.614 187.500 L 238.737 187.500 238.322 189.433 M367.383 192.578 C 367.233 193.466,367.192 194.275,367.292 194.375 C 367.392 194.475,367.591 193.825,367.734 192.930 C 367.878 192.034,367.918 191.226,367.825 191.132 C 367.732 191.039,367.533 191.690,367.383 192.578 M171.659 198.820 C 173.507 199.523,173.607 200.498,172.467 206.676 C 166.661 238.150,166.917 237.109,164.797 237.848 C 163.008 238.472,157.003 238.428,157.231 237.793 C 157.389 237.353,158.637 230.870,162.139 212.305 C 162.788 208.867,163.590 204.561,163.922 202.734 C 164.254 200.908,164.592 199.194,164.672 198.926 C 164.852 198.327,170.152 198.247,171.659 198.820 M127.576 202.675 C 127.305 203.114,126.172 221.467,126.172 225.421 L 126.172 228.516 122.224 228.516 C 118.617 228.516,118.300 228.456,118.556 227.832 C 118.710 227.456,119.768 224.424,120.907 221.094 C 122.045 217.764,123.870 212.490,124.963 209.375 C 126.055 206.260,126.950 203.403,126.951 203.027 C 126.952 202.651,127.139 202.344,127.367 202.344 C 127.594 202.344,127.688 202.493,127.576 202.675 M363.906 210.195 C 363.763 211.091,363.722 211.899,363.815 211.993 C 363.909 212.086,364.108 211.435,364.258 210.547 C 364.408 209.659,364.449 208.850,364.349 208.750 C 364.248 208.650,364.049 209.300,363.906 210.195 M32.266 218.398 C 32.122 219.294,32.082 220.102,32.175 220.196 C 32.268 220.289,32.467 219.638,32.617 218.750 C 32.767 217.862,32.808 217.053,32.708 216.953 C 32.608 216.853,32.409 217.503,32.266 218.398 M29.883 230.469 C 29.733 231.357,29.692 232.166,29.792 232.266 C 29.892 232.366,30.091 231.716,30.234 230.820 C 30.378 229.925,30.418 229.116,30.325 229.023 C 30.232 228.930,30.033 229.580,29.883 230.469 M29.102 234.375 C 28.951 235.263,28.911 236.072,29.011 236.172 C 29.111 236.272,29.310 235.622,29.453 234.727 C 29.596 233.831,29.637 233.023,29.544 232.929 C 29.451 232.836,29.252 233.487,29.102 234.375 M27.002 245.166 C 26.740 246.587,26.601 247.825,26.692 247.916 C 26.783 248.007,27.077 246.924,27.344 245.508 C 27.611 244.092,27.750 242.855,27.654 242.758 C 27.557 242.661,27.264 243.745,27.002 245.166 M346.140 257.657 C 341.603 261.869,337.891 265.422,337.891 265.554 C 337.891 265.686,338.813 264.909,339.941 263.828 C 341.532 262.303,350.329 254.142,354.283 250.523 C 354.598 250.236,354.750 250.000,354.622 250.000 C 354.494 250.000,350.677 253.446,346.140 257.657 M100.685 266.794 L 96.901 269.916 70.228 270.017 L 43.555 270.117 42.908 273.047 C 42.553 274.658,42.245 276.284,42.225 276.660 C 42.190 277.305,43.806 277.344,71.011 277.344 L 99.834 277.344 103.726 274.037 L 107.617 270.730 211.346 270.716 L 315.074 270.703 318.182 267.942 C 319.891 266.424,321.636 264.842,322.059 264.427 C 322.821 263.681,321.562 263.672,213.649 263.672 L 104.469 263.672 100.685 266.794 M320.003 265.734 C 318.991 266.653,317.416 268.059,316.503 268.859 L 314.841 270.313 211.286 270.313 L 107.730 270.313 106.111 271.576 C 105.221 272.272,103.391 273.766,102.046 274.897 L 99.599 276.953 71.062 276.953 C 44.069 276.953,42.536 276.916,42.725 276.270 C 42.835 275.894,43.133 274.487,43.388 273.145 L 43.852 270.703 70.266 270.695 L 96.680 270.687 100.586 267.401 L 104.492 264.115 213.167 264.089 L 321.842 264.063 320.003 265.734 M334.560 268.444 L 331.836 271.263 334.570 268.737 C 337.069 266.428,337.806 265.625,337.424 265.625 C 337.347 265.625,336.058 266.894,334.560 268.444 M324.414 277.796 C 316.336 285.390,316.215 285.480,313.935 285.598 C 312.906 285.652,311.994 285.808,311.909 285.946 C 311.453 286.683,315.847 285.859,316.951 285.000 C 318.794 283.565,331.296 271.872,330.959 271.898 C 330.797 271.910,327.852 274.564,324.414 277.796 M19.766 281.289 C 19.622 282.184,19.582 282.993,19.675 283.086 C 19.768 283.180,19.967 282.529,20.117 281.641 C 20.267 280.752,20.308 279.944,20.208 279.843 C 20.108 279.743,19.909 280.394,19.766 281.289 M112.755 289.334 C 110.574 291.417,108.613 293.290,108.398 293.496 C 108.184 293.702,108.389 293.617,108.854 293.308 C 109.922 292.598,117.289 285.547,116.962 285.547 C 116.829 285.547,114.936 287.251,112.755 289.334 M177.734 285.701 C 177.734 285.786,178.438 285.922,179.297 286.004 C 180.156 286.086,180.859 286.017,180.859 285.850 C 180.859 285.683,180.156 285.547,179.297 285.547 C 178.438 285.547,177.734 285.616,177.734 285.701 M210.063 286.214 C 210.549 286.307,211.252 286.304,211.626 286.206 C 211.999 286.108,211.602 286.032,210.742 286.036 C 209.883 286.040,209.577 286.120,210.063 286.214 M234.681 286.226 C 235.816 286.305,237.574 286.304,238.587 286.224 C 239.601 286.144,238.672 286.079,236.523 286.080 C 234.375 286.081,233.546 286.147,234.681 286.226 M241.309 286.213 C 241.792 286.306,242.583 286.306,243.066 286.213 C 243.550 286.120,243.154 286.044,242.188 286.044 C 241.221 286.044,240.825 286.120,241.309 286.213 M248.547 286.225 C 249.574 286.306,251.156 286.305,252.063 286.223 C 252.969 286.141,252.129 286.075,250.195 286.076 C 248.262 286.077,247.520 286.144,248.547 286.225 M257.324 286.220 C 258.022 286.307,259.165 286.307,259.863 286.220 C 260.562 286.133,259.990 286.063,258.594 286.063 C 257.197 286.063,256.626 286.133,257.324 286.220 M266.699 286.220 C 267.397 286.307,268.540 286.307,269.238 286.220 C 269.937 286.133,269.365 286.063,267.969 286.063 C 266.572 286.063,266.001 286.133,266.699 286.220 M272.363 286.207 C 272.739 286.305,273.354 286.305,273.730 286.207 C 274.106 286.109,273.799 286.028,273.047 286.028 C 272.295 286.028,271.987 286.109,272.363 286.207 M275.488 286.217 C 276.079 286.307,277.046 286.307,277.637 286.217 C 278.228 286.128,277.744 286.055,276.563 286.055 C 275.381 286.055,274.897 286.128,275.488 286.217 M280.371 286.220 C 281.069 286.307,282.212 286.307,282.910 286.220 C 283.608 286.133,283.037 286.063,281.641 286.063 C 280.244 286.063,279.673 286.133,280.371 286.220 M287.012 286.228 C 288.569 286.302,291.118 286.302,292.676 286.228 C 294.233 286.153,292.959 286.093,289.844 286.093 C 286.729 286.093,285.454 286.153,287.012 286.228 M296.582 286.217 C 297.173 286.307,298.140 286.307,298.730 286.217 C 299.321 286.128,298.838 286.055,297.656 286.055 C 296.475 286.055,295.991 286.128,296.582 286.217 M300.488 286.207 C 300.864 286.305,301.479 286.305,301.855 286.207 C 302.231 286.109,301.924 286.028,301.172 286.028 C 300.420 286.028,300.112 286.109,300.488 286.207 M188.882 292.485 C 188.765 292.789,188.856 292.901,189.098 292.752 C 189.327 292.610,189.984 292.349,190.558 292.172 C 191.572 291.859,191.566 291.852,190.342 291.906 C 189.650 291.936,188.992 292.197,188.882 292.485 M104.060 297.662 L 100.504 301.172 58.401 301.172 L 16.299 301.172 16.520 298.926 C 16.705 297.050,16.678 296.896,16.356 297.991 C 16.145 298.712,16.026 299.767,16.091 300.335 L 16.211 301.367 58.404 301.467 L 100.598 301.566 104.295 297.853 C 106.329 295.811,107.908 294.143,107.805 294.146 C 107.702 294.149,106.017 295.731,104.060 297.662 " stroke="none" fill="#faf6e8" fill-rule="evenodd"></path><path id="path1" d="M96.271 100.420 C 96.095 100.705,93.279 114.418,87.895 141.211 C 83.753 161.824,82.184 169.424,81.787 170.797 C 81.604 171.430,80.223 171.484,61.812 171.578 L 42.033 171.680 37.642 193.945 C 35.227 206.191,31.816 223.506,30.063 232.422 C 25.898 253.598,20.009 282.950,17.967 292.711 C 17.075 296.973,16.420 300.534,16.510 300.625 C 16.601 300.715,35.537 300.787,58.590 300.785 L 100.506 300.780 102.499 298.946 C 103.595 297.936,107.179 294.509,110.463 291.329 L 116.434 285.547 216.084 285.547 L 315.733 285.547 317.534 283.910 C 325.066 277.068,350.425 253.518,352.981 250.991 L 356.158 247.852 358.328 236.914 C 359.522 230.898,361.642 220.352,363.039 213.477 C 364.436 206.602,366.298 197.329,367.177 192.870 L 368.775 184.764 364.868 179.784 C 360.069 173.667,360.018 177.483,365.236 152.344 C 366.328 147.080,368.085 138.555,369.139 133.398 C 370.194 128.242,372.119 118.858,373.419 112.546 C 374.718 106.233,375.781 100.916,375.781 100.730 C 375.781 100.362,96.499 100.051,96.271 100.420 M124.103 133.887 C 123.889 149.882,123.924 151.594,124.438 150.195 C 124.754 149.336,127.671 141.294,130.921 132.324 L 136.830 116.016 145.961 116.016 L 155.093 116.016 154.891 116.895 C 154.780 117.378,153.539 123.926,152.131 131.445 C 150.724 138.965,148.797 149.160,147.848 154.102 C 146.899 159.043,145.666 165.631,145.108 168.742 C 144.550 171.853,143.914 175.237,143.694 176.262 L 143.295 178.125 137.342 178.125 L 131.389 178.125 132.892 170.605 C 133.718 166.470,135.277 158.428,136.355 152.734 C 137.433 147.041,138.420 141.943,138.549 141.406 C 139.003 139.503,138.360 140.876,136.810 145.117 C 135.437 148.875,132.977 155.287,125.906 173.535 L 124.127 178.125 119.548 178.125 L 114.968 178.125 114.712 169.629 C 114.570 164.956,114.437 157.969,114.415 154.102 C 114.380 147.824,113.887 138.739,113.732 141.518 C 113.683 142.404,107.541 174.202,106.831 177.246 C 106.633 178.096,94.922 178.727,94.922 177.888 C 94.922 177.639,97.566 163.391,100.787 146.289 C 101.838 140.703,103.504 131.826,104.488 126.563 C 105.471 121.299,106.353 116.772,106.446 116.504 C 106.575 116.133,108.740 116.016,115.479 116.016 L 124.343 116.016 124.103 133.887 M187.353 124.902 C 187.222 129.790,187.023 139.941,186.913 147.461 C 186.802 154.980,186.604 164.956,186.474 169.629 L 186.237 178.125 180.130 178.126 L 174.023 178.126 174.143 173.243 L 174.263 168.359 168.995 168.359 L 163.727 168.359 163.088 170.605 C 162.736 171.841,162.101 174.038,161.676 175.488 L 160.904 178.125 154.289 178.125 L 147.673 178.125 148.618 175.488 C 149.138 174.038,153.362 161.953,158.005 148.633 C 165.333 127.613,167.723 120.827,169.185 116.895 C 169.511 116.018,169.534 116.016,178.552 116.016 L 187.592 116.016 187.353 124.902 M227.010 117.134 C 234.389 120.014,235.160 122.782,232.478 136.775 C 230.423 147.497,228.870 150.618,224.640 152.525 L 223.191 153.179 225.456 165.554 C 226.702 172.361,227.724 177.974,227.728 178.027 C 227.732 178.081,224.782 178.125,221.174 178.125 L 214.613 178.125 213.946 172.363 C 213.579 169.194,212.990 164.097,212.636 161.035 L 211.994 155.469 209.708 155.469 C 207.773 155.469,207.422 155.576,207.422 156.167 C 207.422 156.551,206.650 160.902,205.707 165.835 C 204.764 170.768,203.869 175.552,203.719 176.465 L 203.447 178.125 196.814 178.125 C 190.678 178.125,190.197 178.074,190.392 177.441 C 190.643 176.623,194.524 155.971,198.633 133.594 C 200.270 124.678,201.704 117.056,201.821 116.657 C 202.167 115.470,223.796 115.879,227.010 117.134 M251.563 117.355 C 251.563 118.092,251.287 122.970,250.950 128.195 C 250.208 139.705,248.932 161.882,249.006 161.997 C 249.035 162.042,252.546 151.715,256.808 139.048 L 264.557 116.016 270.755 116.016 C 274.615 116.016,276.953 116.163,276.953 116.405 C 276.953 116.619,276.058 119.212,274.963 122.167 C 273.868 125.122,271.418 131.758,269.518 136.914 C 265.693 147.294,254.908 176.366,254.483 177.441 C 254.238 178.063,253.445 178.125,245.716 178.125 L 237.218 178.125 237.350 177.246 C 237.423 176.763,237.663 167.314,237.883 156.250 C 238.104 145.186,238.399 131.606,238.539 126.074 L 238.794 116.016 245.178 116.016 L 251.563 116.016 251.563 117.355 M309.641 117.090 C 309.522 117.681,309.027 120.317,308.540 122.949 L 307.655 127.734 300.014 127.734 L 292.373 127.734 291.099 134.473 C 290.399 138.179,289.829 141.309,289.834 141.428 C 289.840 141.548,292.656 141.612,296.094 141.571 C 300.419 141.520,302.344 141.629,302.344 141.926 C 302.344 142.162,301.885 144.778,301.324 147.740 L 300.304 153.125 293.930 153.125 L 287.555 153.125 287.134 155.176 C 286.902 156.304,286.303 159.380,285.803 162.012 L 284.893 166.797 292.771 166.797 L 300.649 166.797 299.950 170.215 C 299.565 172.095,299.055 174.644,298.817 175.879 L 298.382 178.125 284.145 178.125 L 269.907 178.125 270.111 177.246 C 270.224 176.763,272.243 166.172,274.599 153.711 C 276.955 141.250,279.534 127.671,280.330 123.535 L 281.778 116.016 295.817 116.016 L 309.857 116.016 309.641 117.090 M329.688 116.142 C 329.688 116.211,329.256 118.452,328.729 121.122 C 328.202 123.792,326.613 132.129,325.197 139.648 C 321.793 157.724,320.331 165.282,320.078 166.113 C 319.884 166.748,320.414 166.797,327.503 166.797 L 335.137 166.797 334.877 168.066 C 334.735 168.765,334.253 171.270,333.808 173.633 L 332.998 177.930 319.038 178.032 C 308.845 178.107,305.078 178.016,305.078 177.693 C 305.078 177.256,308.965 156.251,311.503 142.969 C 312.222 139.209,313.656 131.606,314.691 126.074 L 316.572 116.016 323.130 116.016 C 326.737 116.016,329.688 116.072,329.688 116.142 M211.567 135.406 C 210.749 139.888,209.983 143.978,209.865 144.495 L 209.650 145.434 212.928 145.161 C 218.096 144.730,218.076 144.759,219.743 135.597 C 221.155 127.834,221.215 127.969,216.147 127.527 L 213.054 127.257 211.567 135.406 M175.217 133.087 C 175.070 133.688,173.391 139.014,171.487 144.922 C 169.582 150.830,167.912 156.060,167.775 156.543 C 167.530 157.408,167.582 157.422,171.034 157.422 L 174.543 157.422 174.764 154.590 C 175.099 150.295,175.792 132.302,175.628 132.139 C 175.549 132.060,175.364 132.486,175.217 133.087 M296.825 187.128 C 304.949 188.447,305.846 191.232,302.888 205.957 L 302.672 207.031 296.453 207.031 C 293.033 207.031,290.234 206.875,290.234 206.684 C 290.234 206.493,290.510 204.883,290.847 203.106 C 291.802 198.074,291.113 197.235,286.455 197.760 C 283.771 198.063,283.334 198.748,282.272 204.305 C 280.977 211.079,280.905 210.968,288.093 213.302 C 299.939 217.148,300.572 218.419,297.881 232.964 C 295.234 247.266,291.744 250.163,277.148 250.174 C 263.075 250.184,260.788 247.561,263.288 234.277 L 264.152 229.688 270.552 229.688 C 274.073 229.688,276.956 229.819,276.959 229.980 C 276.963 230.142,276.668 231.991,276.304 234.091 C 275.558 238.392,275.611 238.541,278.078 239.095 C 282.463 240.081,283.763 238.893,284.988 232.783 C 286.359 225.947,286.464 226.129,279.809 223.780 C 267.457 219.420,266.664 217.920,269.353 203.987 C 271.454 193.099,272.694 190.810,277.734 188.515 C 281.323 186.881,290.977 186.180,296.825 187.128 M337.667 187.306 C 344.686 188.792,346.033 191.578,344.289 200.996 L 343.171 207.031 336.820 207.031 C 331.992 207.031,330.472 206.914,330.482 206.543 C 330.490 206.274,330.748 204.912,331.055 203.516 C 332.202 198.298,331.733 197.497,327.664 197.727 C 323.913 197.939,323.545 198.391,322.420 204.172 C 321.926 206.711,321.513 209.017,321.503 209.295 C 321.456 210.558,323.470 211.667,329.003 213.426 C 340.266 217.005,340.925 218.330,338.315 232.157 C 335.571 246.696,332.587 249.569,319.531 250.247 C 303.592 251.074,300.579 247.454,303.967 231.543 L 304.362 229.688 310.775 229.688 C 315.652 229.688,317.184 229.804,317.174 230.176 C 317.166 230.444,316.909 231.807,316.602 233.203 C 315.398 238.674,315.617 239.063,319.911 239.063 C 323.739 239.063,323.978 238.775,325.157 232.764 C 326.511 225.864,326.443 225.764,318.750 223.255 C 307.795 219.683,306.896 217.673,309.766 203.169 C 312.233 190.704,314.271 188.420,324.219 186.968 C 326.905 186.576,335.205 186.784,337.667 187.306 M75.759 193.262 C 75.746 196.431,75.593 204.209,75.418 210.547 C 75.242 216.885,75.130 222.109,75.168 222.157 C 75.240 222.246,77.615 215.887,82.423 202.734 C 83.955 198.545,85.838 193.403,86.609 191.309 L 88.011 187.500 97.074 187.500 L 106.138 187.500 105.210 192.480 C 101.079 214.634,94.911 247.456,94.713 248.340 C 94.520 249.204,94.415 249.219,88.647 249.219 L 82.777 249.219 83.030 247.754 C 83.170 246.948,84.060 242.158,85.008 237.109 C 85.957 232.061,87.260 225.117,87.904 221.680 C 88.548 218.242,89.239 214.732,89.439 213.880 C 89.640 213.027,89.758 212.284,89.702 212.228 C 89.646 212.173,88.090 216.034,86.245 220.809 C 84.399 225.585,81.172 233.931,79.075 239.355 L 75.262 249.219 70.444 249.219 L 65.625 249.219 65.572 230.371 C 65.543 220.005,65.439 211.963,65.342 212.500 C 65.245 213.037,64.645 216.113,64.008 219.336 C 61.149 233.820,58.594 247.495,58.594 248.319 L 58.594 249.219 52.344 249.219 C 48.137 249.219,46.094 249.081,46.094 248.798 C 46.094 248.566,48.280 236.921,50.951 222.919 C 53.623 208.917,56.179 195.439,56.631 192.969 C 57.083 190.498,57.528 188.257,57.620 187.988 C 57.748 187.617,59.937 187.500,66.785 187.500 L 75.781 187.500 75.759 193.262 M138.680 191.309 C 138.696 198.631,137.848 243.580,137.642 246.387 L 137.433 249.219 131.177 249.219 L 124.920 249.219 125.057 244.336 L 125.195 239.453 119.922 239.454 L 114.648 239.456 113.242 244.240 L 111.835 249.023 105.527 249.131 C 102.057 249.190,99.219 249.144,99.219 249.028 C 99.219 248.652,116.710 198.703,120.389 188.574 L 120.780 187.500 129.726 187.500 L 138.672 187.500 138.680 191.309 M181.862 189.063 C 187.656 192.020,187.967 194.048,185.015 209.570 C 183.830 215.801,182.128 224.854,181.232 229.688 C 178.712 243.301,176.536 246.656,168.961 248.616 C 166.439 249.269,141.552 249.540,141.941 248.910 C 142.111 248.636,153.516 188.326,153.516 187.704 C 153.516 187.565,159.291 187.506,166.349 187.573 L 179.183 187.695 181.862 189.063 M208.203 187.814 C 208.203 188.380,212.503 218.134,212.758 219.336 C 212.952 220.247,213.169 219.552,213.733 216.211 C 215.063 208.336,218.415 189.270,218.627 188.379 C 218.832 187.511,218.914 187.500,225.379 187.500 L 231.923 187.500 230.663 193.848 C 229.970 197.339,228.950 202.568,228.396 205.469 C 223.313 232.096,220.246 247.965,220.075 248.535 C 219.890 249.150,219.226 249.219,213.468 249.219 L 207.067 249.219 206.844 247.949 C 206.666 246.929,204.326 230.073,202.899 219.531 L 202.608 217.383 202.161 219.922 C 201.916 221.318,200.585 228.481,199.204 235.840 L 196.694 249.219 190.534 249.219 C 185.659 249.219,184.375 249.110,184.375 248.697 C 184.375 248.247,186.920 234.649,191.991 208.008 C 192.728 204.141,193.898 197.944,194.592 194.238 L 195.854 187.500 202.028 187.500 C 205.424 187.500,208.203 187.641,208.203 187.814 M266.406 187.966 C 266.406 188.222,265.928 190.865,265.343 193.839 L 264.281 199.247 256.661 199.201 L 249.041 199.155 247.977 204.753 C 247.393 207.832,246.822 210.835,246.709 211.426 L 246.504 212.500 252.549 212.500 C 257.265 212.500,258.594 212.612,258.594 213.011 C 258.594 213.543,257.201 221.416,256.835 222.949 C 256.629 223.814,256.526 223.828,250.605 223.828 C 245.207 223.828,244.563 223.899,244.384 224.512 C 244.274 224.888,243.724 227.656,243.162 230.664 C 242.600 233.672,242.044 236.528,241.926 237.012 L 241.712 237.891 249.567 237.891 C 255.728 237.891,257.422 238.000,257.422 238.395 C 257.422 238.673,256.983 241.178,256.447 243.962 C 255.912 246.746,255.472 249.067,255.471 249.121 C 255.470 249.175,248.984 249.219,241.057 249.219 L 226.646 249.219 226.984 247.754 C 227.170 246.948,228.915 237.939,230.862 227.734 C 236.185 199.828,238.293 188.941,238.520 188.184 C 238.779 187.318,266.406 187.102,266.406 187.966 M164.712 199.316 C 164.593 199.800,163.787 203.975,162.921 208.594 C 162.055 213.213,160.464 221.650,159.384 227.344 C 158.305 233.037,157.422 237.827,157.422 237.988 C 157.422 239.605,165.821 237.735,166.678 235.927 C 167.579 234.029,173.430 201.203,173.047 200.196 C 172.342 198.341,165.139 197.581,164.712 199.316 M126.835 203.814 C 126.627 204.853,120.817 221.973,119.148 226.465 L 118.386 228.516 122.050 228.516 L 125.715 228.516 125.933 225.684 C 126.344 220.364,127.288 202.939,127.172 202.823 C 127.108 202.759,126.957 203.205,126.835 203.814 M323.047 263.574 C 323.046 263.856,319.459 267.173,316.288 269.824 L 314.770 271.094 211.170 271.094 L 107.571 271.094 103.561 274.414 L 99.551 277.734 70.648 277.734 C 43.308 277.734,41.755 277.697,41.936 277.051 C 42.041 276.675,42.430 274.917,42.800 273.145 L 43.472 269.922 70.076 269.904 L 96.680 269.885 100.586 266.612 L 104.492 263.339 213.770 263.310 C 273.872 263.294,323.047 263.413,323.047 263.574 " stroke="none" fill="#0c0d0c" fill-rule="evenodd"></path><path id="path2" d="M91.640 94.767 C 91.184 95.957,84.199 130.273,78.656 158.559 C 77.414 164.898,77.226 165.217,74.679 165.279 C 73.674 165.304,72.588 165.353,72.266 165.387 C 71.943 165.421,71.395 165.319,71.047 165.160 C 70.700 165.001,70.290 164.997,70.136 165.150 C 69.982 165.304,62.651 165.442,53.843 165.456 C 35.878 165.486,37.416 165.191,36.770 168.727 C 36.551 169.921,36.020 172.568,35.589 174.609 C 35.157 176.650,34.722 178.760,34.620 179.297 C 33.859 183.333,31.762 193.910,30.633 199.414 C 27.922 212.628,24.635 229.498,24.393 231.445 C 24.339 231.875,23.935 233.721,23.494 235.547 C 23.054 237.373,22.414 240.449,22.073 242.383 C 21.732 244.316,21.017 248.008,20.484 250.586 C 19.124 257.167,16.998 267.741,15.418 275.781 C 14.679 279.541,13.278 286.572,12.304 291.406 C 10.215 301.777,9.770 305.833,10.639 306.555 C 11.100 306.938,20.915 307.019,56.737 306.938 L 102.249 306.836 104.347 304.938 C 108.092 301.550,108.329 301.365,108.757 301.497 C 108.989 301.569,109.062 301.510,108.918 301.366 C 108.570 301.018,110.157 299.219,110.813 299.219 C 111.096 299.219,111.328 299.077,111.328 298.903 C 111.328 298.323,113.388 296.094,113.924 296.094 C 114.215 296.094,114.453 295.918,114.453 295.703 C 114.453 295.488,114.746 295.313,115.104 295.313 C 115.462 295.313,115.638 295.195,115.494 295.051 C 115.205 294.762,116.335 293.359,116.857 293.359 C 117.039 293.359,117.545 293.002,117.981 292.566 C 118.773 291.774,118.957 291.772,178.430 291.811 C 211.241 291.832,255.906 291.835,277.687 291.816 L 317.287 291.782 318.507 290.795 C 320.291 289.351,322.399 287.505,324.166 285.840 C 325.021 285.034,325.845 284.375,325.999 284.375 C 326.390 284.375,327.960 282.634,328.250 281.879 C 328.387 281.521,328.935 281.250,329.522 281.250 C 330.277 281.250,330.492 281.094,330.327 280.664 C 330.191 280.307,330.327 280.078,330.676 280.078 C 330.992 280.078,331.250 279.891,331.250 279.662 C 331.250 279.229,335.317 275.000,335.734 275.000 C 335.865 275.000,336.874 274.042,337.976 272.871 C 339.078 271.700,340.169 270.849,340.400 270.980 C 340.631 271.112,340.687 271.072,340.524 270.892 C 340.187 270.522,341.707 268.750,342.362 268.750 C 342.598 268.750,343.398 268.047,344.141 267.188 C 344.883 266.328,345.802 265.625,346.183 265.625 C 346.594 265.625,346.875 265.334,346.875 264.907 C 346.875 263.991,349.477 261.558,349.746 262.222 C 349.852 262.483,349.952 262.300,349.969 261.816 C 349.986 261.333,350.221 260.938,350.492 260.938 C 350.763 260.938,351.204 260.586,351.472 260.156 C 351.740 259.727,352.222 259.375,352.542 259.375 C 352.863 259.375,353.125 259.103,353.125 258.770 C 353.125 258.084,355.021 256.281,355.762 256.262 C 356.030 256.256,356.250 256.029,356.250 255.759 C 356.250 255.489,357.236 254.317,358.441 253.154 C 360.746 250.928,362.060 248.502,362.369 245.898 C 362.471 245.039,362.915 242.578,363.356 240.430 C 363.798 238.281,364.245 236.042,364.350 235.453 C 364.459 234.840,364.715 234.491,364.949 234.635 C 365.207 234.795,365.276 234.577,365.137 234.045 C 365.016 233.581,365.066 233.294,365.249 233.407 C 365.432 233.520,365.573 232.598,365.564 231.357 C 365.555 230.117,365.752 228.223,366.003 227.148 C 367.006 222.853,368.416 216.134,368.584 214.844 C 368.920 212.269,371.146 201.804,371.497 201.148 C 371.690 200.788,371.764 200.410,371.662 200.308 C 371.560 200.206,372.093 197.037,372.848 193.266 C 374.667 184.169,374.662 184.073,372.259 180.581 C 371.182 179.015,370.381 177.734,370.479 177.734 C 370.578 177.734,370.156 177.184,369.542 176.511 C 368.883 175.790,368.485 174.973,368.572 174.522 C 368.668 174.022,368.545 173.823,368.218 173.949 C 367.218 174.332,366.772 172.826,367.259 170.715 C 367.508 169.634,367.852 168.750,368.024 168.750 C 368.195 168.750,368.237 168.495,368.117 168.183 C 367.997 167.871,368.044 167.387,368.221 167.109 C 368.397 166.830,368.575 165.754,368.615 164.717 C 368.716 162.152,370.736 153.099,371.151 153.356 C 371.627 153.650,371.564 152.970,371.069 152.475 C 370.775 152.181,370.808 151.901,371.183 151.518 C 371.474 151.220,371.739 150.273,371.770 149.414 C 371.802 148.555,372.463 144.951,373.239 141.406 C 374.015 137.861,374.729 134.346,374.826 133.594 C 374.922 132.842,375.181 131.436,375.401 130.469 C 375.620 129.502,375.872 128.327,375.959 127.857 C 376.046 127.388,376.379 125.981,376.699 124.732 C 377.019 123.483,377.479 121.406,377.722 120.117 C 378.299 117.048,378.862 114.240,379.289 112.305 C 380.952 104.764,381.803 100.186,382.248 96.387 L 382.512 94.141 237.196 94.141 C 104.238 94.141,91.860 94.194,91.640 94.767 M235.938 99.999 L 96.680 100.194 236.328 100.390 L 375.977 100.586 376.107 101.508 C 376.199 102.159,376.096 102.343,375.757 102.134 C 375.402 101.914,375.344 102.107,375.536 102.871 C 375.692 103.493,375.634 103.906,375.391 103.906 C 375.153 103.906,375.087 104.311,375.230 104.883 C 375.379 105.474,375.308 105.859,375.052 105.859 C 374.790 105.859,374.712 106.343,374.847 107.129 C 375.017 108.112,374.969 108.266,374.637 107.813 C 374.312 107.369,374.264 107.654,374.440 108.984 C 374.620 110.349,374.573 110.611,374.227 110.156 C 373.877 109.697,373.837 109.855,374.042 110.889 C 374.236 111.872,374.182 112.133,373.828 111.914 C 373.474 111.695,373.425 111.942,373.633 112.891 C 373.833 113.802,373.785 114.082,373.464 113.883 C 373.149 113.689,373.091 113.908,373.269 114.616 C 373.425 115.236,373.359 115.625,373.099 115.625 C 372.837 115.625,372.759 116.109,372.894 116.895 C 373.067 117.901,373.020 118.043,372.665 117.578 C 372.314 117.118,372.274 117.275,372.479 118.311 C 372.659 119.219,372.607 119.547,372.313 119.365 C 372.021 119.185,371.966 119.496,372.137 120.354 C 372.315 121.242,372.258 121.526,371.942 121.330 C 371.626 121.135,371.569 121.419,371.747 122.307 C 371.930 123.226,371.873 123.482,371.530 123.270 C 371.189 123.060,371.135 123.271,371.330 124.049 C 371.532 124.851,371.477 125.041,371.109 124.814 C 370.736 124.584,370.686 124.814,370.898 125.781 C 371.107 126.729,371.057 126.977,370.703 126.758 C 370.349 126.539,370.300 126.786,370.508 127.734 C 370.716 128.683,370.667 128.930,370.313 128.711 C 369.958 128.492,369.909 128.739,370.117 129.688 C 370.310 130.565,370.264 130.876,369.970 130.694 C 369.677 130.513,369.622 130.824,369.793 131.682 C 369.980 132.613,369.922 132.859,369.567 132.639 C 369.209 132.418,369.153 132.718,369.340 133.848 C 369.532 135.001,369.488 135.215,369.155 134.766 C 368.822 134.316,368.777 134.544,368.960 135.742 C 369.146 136.956,369.100 137.174,368.756 136.719 C 368.409 136.261,368.369 136.421,368.573 137.451 C 368.753 138.360,368.701 138.688,368.407 138.506 C 368.115 138.325,368.059 138.636,368.231 139.494 C 368.425 140.465,368.367 140.676,367.973 140.432 C 367.586 140.193,367.524 140.356,367.714 141.115 C 368.055 142.470,367.590 144.776,367.118 144.074 C 366.900 143.751,366.858 144.145,367.007 145.117 C 367.193 146.331,367.147 146.549,366.802 146.094 C 366.455 145.635,366.412 145.805,366.602 146.875 C 366.787 147.922,366.744 148.105,366.415 147.656 C 366.089 147.211,366.044 147.445,366.226 148.633 C 366.413 149.856,366.367 150.068,366.016 149.609 C 365.664 149.150,365.621 149.349,365.816 150.527 C 365.998 151.625,365.942 151.954,365.608 151.747 C 365.275 151.541,365.227 151.809,365.430 152.734 C 365.638 153.683,365.588 153.930,365.234 153.711 C 364.880 153.492,364.831 153.739,365.039 154.688 C 365.232 155.565,365.186 155.876,364.891 155.694 C 364.601 155.514,364.536 155.841,364.687 156.719 C 364.863 157.739,364.816 157.886,364.462 157.422 C 364.111 156.962,364.071 157.119,364.276 158.154 C 364.470 159.137,364.416 159.398,364.063 159.180 C 363.708 158.961,363.659 159.208,363.867 160.156 C 364.060 161.034,364.014 161.345,363.720 161.162 C 363.429 160.983,363.364 161.309,363.515 162.188 C 363.691 163.208,363.645 163.355,363.290 162.891 C 362.939 162.430,362.899 162.587,363.104 163.623 C 363.284 164.532,363.232 164.860,362.938 164.678 C 362.646 164.497,362.591 164.808,362.762 165.666 C 362.953 166.619,362.895 166.845,362.519 166.613 C 362.141 166.380,362.091 166.605,362.305 167.578 C 362.508 168.503,362.459 168.771,362.126 168.565 C 361.792 168.359,361.736 168.688,361.918 169.786 C 362.102 170.890,362.059 171.134,361.759 170.703 C 361.457 170.270,361.407 170.526,361.567 171.680 C 361.728 172.839,361.677 173.091,361.372 172.656 C 361.061 172.213,360.993 172.437,361.094 173.578 C 361.182 174.568,361.554 175.373,362.175 175.922 C 362.696 176.382,362.932 176.670,362.699 176.563 C 362.465 176.455,362.727 176.807,363.281 177.344 C 363.835 177.881,364.099 178.232,363.867 178.125 C 363.636 178.018,363.899 178.369,364.453 178.906 C 365.007 179.443,365.190 179.729,364.859 179.540 C 364.528 179.352,364.971 179.879,365.842 180.712 C 367.761 182.546,369.224 184.343,368.341 183.782 C 368.009 183.571,368.087 183.718,368.516 184.109 C 369.166 184.703,369.216 184.945,368.821 185.579 C 368.550 186.012,368.458 186.780,368.605 187.368 C 368.785 188.085,368.730 188.315,368.422 188.125 C 368.113 187.933,368.047 188.237,368.203 189.141 C 368.379 190.160,368.332 190.307,367.979 189.844 C 367.632 189.389,367.586 189.651,367.773 191.016 C 367.947 192.282,367.902 192.610,367.612 192.188 C 367.318 191.760,367.268 192.023,367.426 193.164 C 367.596 194.388,367.546 194.599,367.196 194.141 C 366.846 193.681,366.806 193.838,367.010 194.873 C 367.205 195.856,367.150 196.117,366.797 195.898 C 366.443 195.680,366.393 195.927,366.602 196.875 C 366.794 197.753,366.749 198.063,366.454 197.881 C 366.162 197.700,366.106 198.011,366.278 198.869 C 366.464 199.801,366.406 200.046,366.052 199.827 C 365.692 199.605,365.643 199.892,365.849 200.995 C 366.059 202.112,366.009 202.386,365.637 202.156 C 365.268 201.928,365.218 202.161,365.430 203.125 C 365.622 204.003,365.577 204.313,365.282 204.131 C 364.991 203.951,364.926 204.278,365.078 205.156 C 365.252 206.165,365.205 206.318,364.862 205.859 C 364.524 205.408,364.479 205.631,364.663 206.836 C 364.844 208.017,364.798 208.256,364.477 207.813 C 364.157 207.372,364.109 207.662,364.284 208.984 C 364.458 210.298,364.410 210.594,364.095 210.156 C 363.776 209.713,363.735 209.894,363.929 210.901 C 364.117 211.882,364.062 212.155,363.717 211.942 C 363.377 211.732,363.323 211.943,363.518 212.721 C 363.715 213.505,363.660 213.711,363.313 213.496 C 362.960 213.278,362.904 213.584,363.090 214.708 C 363.286 215.885,363.242 216.084,362.891 215.625 C 362.539 215.166,362.493 215.378,362.681 216.602 C 362.860 217.772,362.814 218.017,362.500 217.578 C 362.186 217.139,362.140 217.385,362.319 218.555 C 362.503 219.753,362.457 219.981,362.124 219.531 C 361.791 219.082,361.746 219.310,361.929 220.508 C 362.112 221.706,362.067 221.934,361.733 221.484 C 361.400 221.035,361.355 221.263,361.538 222.461 C 361.724 223.675,361.678 223.893,361.334 223.438 C 360.987 222.980,360.947 223.140,361.151 224.170 C 361.331 225.079,361.279 225.406,360.985 225.225 C 360.695 225.045,360.629 225.372,360.781 226.250 C 360.955 227.259,360.908 227.412,360.565 226.953 C 360.228 226.501,360.182 226.725,360.366 227.930 C 360.552 229.144,360.506 229.362,360.162 228.906 C 359.815 228.448,359.775 228.608,359.979 229.639 C 360.169 230.597,360.115 230.880,359.782 230.674 C 359.448 230.468,359.392 230.797,359.575 231.895 C 359.766 233.048,359.723 233.262,359.390 232.813 C 359.057 232.363,359.011 232.591,359.194 233.789 C 359.378 234.987,359.332 235.215,358.999 234.766 C 358.666 234.316,358.621 234.544,358.804 235.742 C 358.991 236.966,358.945 237.178,358.594 236.719 C 358.242 236.260,358.197 236.472,358.384 237.695 C 358.565 238.883,358.520 239.117,358.194 238.672 C 357.866 238.224,357.826 238.396,358.026 239.404 C 358.220 240.387,358.166 240.648,357.813 240.430 C 357.458 240.211,357.409 240.458,357.617 241.406 C 357.820 242.331,357.772 242.599,357.439 242.393 C 357.105 242.187,357.049 242.516,357.231 243.614 C 357.427 244.797,357.384 244.993,357.028 244.531 C 356.667 244.064,356.620 244.207,356.797 245.234 C 356.954 246.145,356.888 246.442,356.573 246.247 C 356.266 246.057,356.201 246.255,356.365 246.882 C 356.524 247.489,356.381 247.975,355.938 248.339 C 355.573 248.640,355.520 248.758,355.822 248.601 C 356.186 248.413,356.275 248.471,356.088 248.774 C 355.933 249.026,355.669 249.147,355.502 249.044 C 355.334 248.940,354.687 249.418,354.064 250.105 C 353.087 251.182,353.065 251.250,353.906 250.593 C 355.430 249.404,354.172 250.621,347.852 256.454 C 344.629 259.428,341.028 262.752,339.849 263.841 C 338.428 265.154,338.099 265.361,338.873 264.455 L 340.039 263.089 338.922 264.064 C 338.308 264.600,337.693 265.303,337.555 265.625 C 337.417 265.947,336.074 267.352,334.570 268.746 C 333.066 270.140,332.362 270.667,333.005 269.918 C 334.123 268.615,334.102 268.623,332.524 270.092 C 331.616 270.937,330.944 271.699,331.029 271.784 C 331.196 271.951,318.967 283.431,316.951 285.000 C 315.773 285.917,311.467 286.660,311.961 285.862 C 312.075 285.677,284.821 285.542,251.015 285.560 C 213.192 285.579,189.775 285.732,189.635 285.960 C 189.509 286.162,189.110 286.325,188.746 286.322 C 188.223 286.317,188.197 286.246,188.620 285.978 C 188.944 285.773,187.515 285.622,185.007 285.595 C 182.333 285.567,180.859 285.697,180.859 285.963 C 180.859 286.189,180.677 286.261,180.453 286.123 C 179.673 285.641,166.159 285.420,164.873 285.869 C 164.198 286.104,163.734 286.153,163.843 285.977 C 163.952 285.801,153.316 285.655,140.209 285.653 C 127.102 285.651,116.458 285.728,116.555 285.826 C 116.896 286.166,115.201 287.526,114.769 287.259 C 114.525 287.108,114.440 287.164,114.577 287.384 C 114.712 287.602,113.464 289.061,111.805 290.627 C 110.146 292.193,106.943 295.296,104.688 297.521 L 100.586 301.568 58.398 301.468 L 16.211 301.367 16.102 299.805 C 16.021 298.638,16.095 298.391,16.395 298.828 C 16.687 299.256,16.727 299.054,16.540 298.084 C 16.358 297.135,16.412 296.833,16.730 297.029 C 17.045 297.223,17.110 296.925,16.953 296.016 C 16.779 295.007,16.826 294.854,17.169 295.313 C 17.506 295.763,17.546 295.547,17.343 294.377 C 17.156 293.296,17.206 292.934,17.518 293.127 C 17.824 293.316,17.890 293.008,17.735 292.109 C 17.561 291.101,17.608 290.948,17.950 291.406 C 18.288 291.858,18.334 291.634,18.149 290.430 C 17.964 289.215,18.009 288.998,18.354 289.453 C 18.701 289.911,18.740 289.751,18.537 288.721 C 18.342 287.738,18.397 287.477,18.750 287.695 C 19.104 287.914,19.154 287.667,18.945 286.719 C 18.737 285.771,18.787 285.523,19.141 285.742 C 19.494 285.961,19.548 285.700,19.354 284.717 C 19.155 283.708,19.194 283.536,19.522 283.984 C 19.848 284.430,19.894 284.196,19.712 283.008 C 19.536 281.860,19.581 281.601,19.882 282.031 C 20.184 282.464,20.234 282.209,20.074 281.055 C 19.904 279.831,19.954 279.619,20.304 280.078 C 20.654 280.538,20.694 280.381,20.490 279.346 C 20.310 278.437,20.361 278.109,20.655 278.291 C 20.948 278.472,21.003 278.160,20.832 277.302 C 20.641 276.350,20.699 276.123,21.075 276.355 C 21.453 276.589,21.503 276.363,21.289 275.391 C 21.077 274.423,21.127 274.193,21.500 274.423 C 21.867 274.651,21.922 274.460,21.721 273.658 C 21.537 272.924,21.588 272.674,21.884 272.857 C 22.187 273.044,22.234 272.687,22.041 271.662 C 21.846 270.622,21.894 270.278,22.206 270.471 C 22.513 270.661,22.570 270.368,22.394 269.490 C 22.216 268.602,22.273 268.318,22.589 268.513 C 22.904 268.708,22.970 268.410,22.813 267.500 C 22.639 266.491,22.686 266.338,23.028 266.797 C 23.365 267.247,23.405 267.031,23.203 265.862 C 23.015 264.780,23.066 264.419,23.378 264.611 C 23.685 264.801,23.741 264.508,23.566 263.631 C 23.388 262.742,23.445 262.459,23.761 262.654 C 24.076 262.848,24.142 262.550,23.985 261.641 C 23.811 260.632,23.858 260.479,24.200 260.938 C 24.537 261.388,24.577 261.172,24.374 260.002 C 24.173 258.839,24.225 258.552,24.597 258.781 C 24.966 259.010,25.016 258.777,24.805 257.812 C 24.618 256.964,24.662 256.627,24.935 256.796 C 25.205 256.963,25.275 256.548,25.140 255.575 C 24.981 254.430,25.033 254.232,25.373 254.688 C 25.710 255.139,25.755 254.915,25.571 253.711 C 25.385 252.497,25.431 252.279,25.776 252.734 C 26.122 253.192,26.162 253.032,25.958 252.002 C 25.785 251.124,25.834 250.768,26.107 250.936 C 26.377 251.103,26.447 250.688,26.312 249.716 C 26.153 248.570,26.205 248.373,26.545 248.828 C 26.882 249.279,26.927 249.055,26.743 247.852 C 26.567 246.704,26.612 246.445,26.913 246.875 C 27.215 247.308,27.265 247.053,27.105 245.898 C 26.944 244.738,26.994 244.487,27.300 244.922 C 27.605 245.355,27.648 245.110,27.467 243.982 C 27.285 242.851,27.343 242.531,27.689 242.745 C 28.030 242.956,28.084 242.745,27.888 241.967 C 27.692 241.183,27.746 240.977,28.093 241.191 C 28.447 241.410,28.497 241.118,28.291 240.021 C 28.096 238.981,28.144 238.637,28.456 238.830 C 28.763 239.020,28.820 238.727,28.644 237.849 C 28.454 236.897,28.512 236.670,28.887 236.902 C 29.249 237.126,29.312 236.990,29.123 236.394 C 28.779 235.311,29.277 232.754,29.772 233.060 C 30.011 233.208,30.062 232.987,29.904 232.488 C 29.578 231.463,30.048 228.841,30.506 229.124 C 30.694 229.241,30.735 228.772,30.597 228.084 C 30.403 227.113,30.461 226.902,30.855 227.146 C 31.247 227.388,31.302 227.214,31.096 226.393 C 30.912 225.659,30.963 225.408,31.259 225.592 C 31.562 225.779,31.609 225.422,31.416 224.396 C 31.227 223.389,31.273 223.015,31.563 223.194 C 31.849 223.371,31.919 222.980,31.780 221.981 C 31.621 220.836,31.673 220.638,32.013 221.094 C 32.350 221.545,32.396 221.321,32.212 220.117 C 32.036 218.969,32.081 218.710,32.382 219.141 C 32.684 219.573,32.734 219.318,32.574 218.164 C 32.406 216.956,32.456 216.734,32.795 217.188 C 33.131 217.638,33.171 217.421,32.968 216.252 C 32.781 215.171,32.831 214.809,33.143 215.002 C 33.451 215.192,33.507 214.899,33.332 214.021 C 33.145 213.090,33.203 212.845,33.558 213.064 C 33.916 213.285,33.972 212.985,33.785 211.855 C 33.589 210.673,33.632 210.477,33.987 210.938 C 34.350 211.409,34.392 211.314,34.204 210.449 C 34.063 209.803,34.135 209.375,34.385 209.375 C 34.648 209.375,34.712 208.837,34.559 207.910 C 34.372 206.784,34.417 206.581,34.751 207.031 C 35.084 207.481,35.129 207.253,34.946 206.055 C 34.763 204.857,34.808 204.629,35.142 205.078 C 35.475 205.527,35.520 205.300,35.337 204.102 C 35.154 202.904,35.199 202.676,35.532 203.125 C 35.865 203.574,35.911 203.346,35.727 202.148 C 35.544 200.950,35.590 200.723,35.923 201.172 C 36.256 201.621,36.301 201.393,36.118 200.195 C 35.935 198.997,35.980 198.769,36.313 199.219 C 36.646 199.668,36.692 199.440,36.509 198.242 C 36.325 197.044,36.371 196.816,36.704 197.266 C 37.037 197.715,37.083 197.487,36.899 196.289 C 36.712 195.062,36.757 194.852,37.112 195.313 C 37.475 195.784,37.517 195.689,37.329 194.824 C 37.188 194.178,37.260 193.750,37.510 193.750 C 37.773 193.750,37.837 193.212,37.684 192.285 C 37.497 191.159,37.542 190.956,37.876 191.406 C 38.208 191.854,38.248 191.634,38.046 190.471 C 37.845 189.308,37.897 189.020,38.269 189.250 C 38.623 189.469,38.685 189.329,38.498 188.738 C 38.172 187.713,38.641 185.091,39.099 185.374 C 39.288 185.491,39.329 185.022,39.191 184.334 C 39.007 183.415,39.065 183.158,39.408 183.370 C 39.748 183.581,39.802 183.370,39.607 182.592 C 39.403 181.777,39.458 181.598,39.841 181.834 C 40.232 182.076,40.282 181.822,40.068 180.682 C 39.863 179.586,39.912 179.293,40.266 179.512 C 40.612 179.725,40.669 179.526,40.479 178.769 C 40.320 178.135,40.381 177.734,40.635 177.734 C 40.898 177.734,40.962 177.196,40.809 176.270 C 40.622 175.143,40.667 174.940,41.001 175.391 C 41.334 175.840,41.379 175.612,41.196 174.414 C 41.010 173.200,41.056 172.982,41.401 173.438 C 41.749 173.897,41.790 173.747,41.592 172.743 C 41.453 172.038,41.486 171.488,41.666 171.519 C 45.182 172.138,80.963 171.368,81.145 170.670 C 81.311 170.039,81.439 169.973,81.719 170.377 C 81.951 170.713,81.986 170.430,81.818 169.580 C 81.638 168.671,81.690 168.344,81.984 168.525 C 82.274 168.705,82.339 168.378,82.188 167.500 C 82.014 166.491,82.061 166.338,82.403 166.797 C 82.741 167.249,82.787 167.025,82.602 165.820 C 82.416 164.603,82.462 164.387,82.809 164.844 C 83.173 165.323,83.210 165.273,83.012 164.568 C 82.662 163.319,83.200 160.709,83.668 161.387 C 83.905 161.731,83.941 161.456,83.771 160.596 C 83.577 159.613,83.631 159.352,83.984 159.570 C 84.338 159.789,84.388 159.542,84.180 158.594 C 83.993 157.745,84.037 157.408,84.310 157.577 C 84.580 157.744,84.650 157.329,84.515 156.356 C 84.356 155.211,84.408 155.013,84.748 155.469 C 85.085 155.920,85.130 155.696,84.946 154.492 C 84.760 153.278,84.806 153.060,85.151 153.516 C 85.497 153.974,85.537 153.814,85.333 152.783 C 85.160 151.905,85.209 151.549,85.482 151.718 C 85.752 151.885,85.822 151.470,85.687 150.497 C 85.526 149.338,85.577 149.148,85.929 149.609 C 86.279 150.069,86.319 149.912,86.115 148.877 C 85.935 147.968,85.986 147.640,86.280 147.822 C 86.571 148.002,86.636 147.675,86.485 146.797 C 86.311 145.788,86.358 145.635,86.700 146.094 C 87.038 146.545,87.084 146.322,86.899 145.117 C 86.716 143.919,86.762 143.691,87.095 144.141 C 87.427 144.589,87.467 144.368,87.265 143.205 C 87.084 142.158,87.133 141.765,87.423 141.944 C 87.708 142.121,87.778 141.730,87.640 140.731 C 87.479 139.572,87.531 139.383,87.882 139.844 C 88.233 140.304,88.273 140.146,88.068 139.111 C 87.894 138.233,87.944 137.877,88.216 138.046 C 88.486 138.213,88.556 137.798,88.421 136.825 C 88.268 135.723,88.320 135.499,88.628 135.938 C 88.934 136.373,88.985 136.121,88.824 134.961 C 88.660 133.780,88.710 133.542,89.030 133.984 C 89.350 134.428,89.390 134.248,89.196 133.240 C 89.014 132.292,89.069 131.989,89.386 132.185 C 89.702 132.381,89.759 132.097,89.582 131.209 C 89.404 130.321,89.461 130.037,89.777 130.232 C 90.093 130.428,90.150 130.144,89.972 129.256 C 89.778 128.285,89.836 128.074,90.230 128.318 C 90.620 128.558,90.678 128.390,90.479 127.597 C 90.316 126.948,90.379 126.563,90.649 126.563 C 90.926 126.563,90.983 126.131,90.810 125.342 C 90.610 124.434,90.663 124.196,91.016 124.414 C 91.355 124.624,91.416 124.475,91.232 123.894 C 90.865 122.737,91.400 120.075,91.862 120.762 C 92.084 121.093,92.118 120.722,91.953 119.768 C 91.790 118.831,91.833 118.335,92.063 118.478 C 92.282 118.613,92.374 118.192,92.284 117.460 C 92.167 116.493,92.226 116.343,92.550 116.797 C 92.864 117.237,92.904 117.053,92.712 116.053 C 92.530 115.104,92.584 114.801,92.902 114.998 C 93.218 115.193,93.275 114.909,93.097 114.021 C 92.903 113.051,92.961 112.840,93.355 113.083 C 93.745 113.324,93.803 113.155,93.604 112.363 C 93.454 111.763,93.508 111.328,93.733 111.328 C 93.960 111.328,94.019 110.817,93.875 110.096 C 93.700 109.223,93.758 108.943,94.074 109.138 C 94.390 109.334,94.447 109.050,94.269 108.162 C 94.083 107.231,94.141 106.985,94.495 107.204 C 94.853 107.426,94.910 107.126,94.722 105.995 C 94.536 104.870,94.578 104.640,94.892 105.078 C 95.208 105.520,95.248 105.336,95.056 104.334 C 94.873 103.385,94.928 103.083,95.246 103.279 C 95.560 103.473,95.626 103.175,95.469 102.266 C 95.291 101.235,95.338 101.094,95.702 101.563 C 96.068 102.034,96.110 101.933,95.914 101.041 C 95.757 100.321,95.814 100.022,96.078 100.186 C 96.302 100.324,96.484 100.251,96.484 100.023 C 96.484 99.732,137.958 99.638,235.840 99.706 L 375.195 99.804 235.938 99.999 M110.840 116.307 C 113.257 116.376,117.212 116.376,119.629 116.307 C 122.046 116.239,120.068 116.183,115.234 116.183 C 110.400 116.183,108.423 116.239,110.840 116.307 M141.331 116.308 C 143.975 116.375,148.194 116.375,150.706 116.307 C 153.218 116.239,151.055 116.184,145.898 116.184 C 140.742 116.184,138.687 116.240,141.331 116.308 M169.396 116.309 C 169.295 116.470,171.966 116.556,175.329 116.501 C 186.619 116.315,187.761 116.175,178.636 116.095 C 173.654 116.051,169.496 116.147,169.396 116.309 M206.715 116.307 C 209.442 116.374,214.012 116.375,216.871 116.308 C 219.731 116.241,217.500 116.186,211.914 116.186 C 206.328 116.186,203.989 116.240,206.715 116.307 M238.734 117.480 C 238.795 118.909,238.801 118.914,238.954 117.685 L 239.111 116.425 245.434 116.308 L 251.758 116.190 245.215 116.103 L 238.672 116.016 238.734 117.480 M268.084 116.306 C 269.759 116.380,272.396 116.379,273.944 116.305 C 275.491 116.231,274.121 116.171,270.898 116.172 C 267.676 116.172,266.409 116.233,268.084 116.306 M288.574 116.308 C 292.495 116.372,298.911 116.372,302.832 116.308 C 306.753 116.244,303.545 116.192,295.703 116.192 C 287.861 116.192,284.653 116.244,288.574 116.308 M319.629 116.306 C 321.509 116.378,324.585 116.378,326.465 116.306 C 328.345 116.235,326.807 116.176,323.047 116.176 C 319.287 116.176,317.749 116.235,319.629 116.306 M187.234 122.656 C 187.234 124.053,187.305 124.624,187.392 123.926 C 187.479 123.228,187.479 122.085,187.392 121.387 C 187.305 120.688,187.234 121.260,187.234 122.656 M238.409 131.055 C 238.411 132.559,238.482 133.126,238.566 132.316 C 238.651 131.505,238.649 130.275,238.563 129.581 C 238.477 128.888,238.408 129.551,238.409 131.055 M123.953 135.547 C 123.953 136.943,124.024 137.515,124.111 136.816 C 124.197 136.118,124.197 134.976,124.111 134.277 C 124.024 133.579,123.953 134.150,123.953 135.547 M186.855 144.141 C 186.855 145.967,186.923 146.714,187.005 145.801 C 187.087 144.888,187.087 143.394,187.005 142.480 C 186.923 141.567,186.855 142.314,186.855 144.141 M294.629 141.693 C 295.649 141.774,297.319 141.774,298.340 141.693 C 299.360 141.613,298.525 141.547,296.484 141.547 C 294.443 141.547,293.608 141.613,294.629 141.693 M114.161 144.727 C 114.165 145.586,114.245 145.892,114.339 145.406 C 114.432 144.920,114.429 144.217,114.331 143.843 C 114.233 143.470,114.157 143.867,114.161 144.727 M238.022 148.047 C 238.022 149.658,238.091 150.317,238.175 149.512 C 238.259 148.706,238.259 147.388,238.175 146.582 C 238.091 145.776,238.022 146.436,238.022 148.047 M290.742 153.026 C 292.632 153.097,295.621 153.097,297.382 153.025 C 299.144 152.952,297.598 152.894,293.945 152.894 C 290.293 152.895,288.851 152.954,290.742 153.026 M174.708 156.055 C 174.712 156.914,174.792 157.220,174.886 156.734 C 174.979 156.248,174.976 155.545,174.878 155.171 C 174.780 154.798,174.704 155.195,174.708 156.055 M114.590 163.672 C 114.590 165.498,114.657 166.245,114.739 165.332 C 114.821 164.419,114.821 162.925,114.739 162.012 C 114.657 161.099,114.590 161.846,114.590 163.672 M186.462 166.602 C 186.463 168.320,186.532 168.975,186.615 168.056 C 186.697 167.137,186.696 165.731,186.612 164.931 C 186.528 164.131,186.461 164.883,186.462 166.602 M237.621 166.602 C 237.623 167.891,237.696 168.371,237.783 167.669 C 237.870 166.967,237.868 165.912,237.779 165.325 C 237.690 164.738,237.619 165.313,237.621 166.602 M285.650 186.999 C 286.244 187.089,287.123 187.086,287.603 186.994 C 288.083 186.901,287.598 186.828,286.523 186.830 C 285.449 186.833,285.056 186.909,285.650 186.999 M291.699 187.001 C 292.397 187.088,293.540 187.088,294.238 187.001 C 294.937 186.915,294.365 186.844,292.969 186.844 C 291.572 186.844,291.001 186.915,291.699 187.001 M325.488 186.988 C 325.864 187.086,326.479 187.086,326.855 186.988 C 327.231 186.890,326.924 186.809,326.172 186.809 C 325.420 186.809,325.112 186.890,325.488 186.988 M333.691 186.988 C 334.067 187.086,334.683 187.086,335.059 186.988 C 335.435 186.890,335.127 186.809,334.375 186.809 C 333.623 186.809,333.315 186.890,333.691 186.988 M75.527 199.609 C 75.527 201.436,75.594 202.183,75.677 201.270 C 75.759 200.356,75.759 198.862,75.677 197.949 C 75.594 197.036,75.527 197.783,75.527 199.609 M253.223 199.119 C 255.317 199.190,258.745 199.190,260.840 199.119 C 262.935 199.049,261.221 198.992,257.031 198.992 C 252.842 198.992,251.128 199.049,253.223 199.119 M138.415 203.320 C 138.417 205.039,138.485 205.694,138.568 204.775 C 138.650 203.856,138.649 202.450,138.565 201.650 C 138.481 200.850,138.414 201.602,138.415 203.320 M249.530 212.791 C 251.313 212.863,254.125 212.863,255.780 212.790 C 257.435 212.717,255.977 212.658,252.539 212.658 C 249.102 212.659,247.748 212.718,249.530 212.791 M75.117 217.188 C 75.117 218.369,75.190 218.853,75.280 218.262 C 75.369 217.671,75.369 216.704,75.280 216.113 C 75.190 215.522,75.117 216.006,75.117 217.188 M138.016 222.656 C 138.016 224.053,138.087 224.624,138.173 223.926 C 138.260 223.228,138.260 222.085,138.173 221.387 C 138.087 220.688,138.016 221.260,138.016 222.656 M125.880 227.148 C 125.884 228.008,125.964 228.313,126.058 227.827 C 126.151 227.342,126.147 226.638,126.050 226.265 C 125.952 225.892,125.875 226.289,125.880 227.148 M117.268 239.352 C 118.709 239.427,121.170 239.427,122.737 239.353 C 124.304 239.279,123.125 239.217,120.117 239.217 C 117.109 239.216,115.827 239.277,117.268 239.352 M318.853 239.343 C 319.447 239.433,320.326 239.430,320.806 239.337 C 321.287 239.245,320.801 239.171,319.727 239.174 C 318.652 239.177,318.259 239.253,318.853 239.343 M125.106 242.188 C 125.106 243.154,125.183 243.550,125.276 243.066 C 125.369 242.583,125.369 241.792,125.276 241.309 C 125.183 240.825,125.106 241.221,125.106 242.188 M137.634 243.555 C 137.635 245.273,137.704 245.928,137.787 245.009 C 137.869 244.090,137.868 242.684,137.784 241.884 C 137.700 241.084,137.632 241.836,137.634 243.555 M275.112 250.289 C 276.355 250.367,278.289 250.366,279.409 250.287 C 280.529 250.209,279.512 250.145,277.148 250.146 C 274.785 250.147,273.869 250.211,275.112 250.289 M315.346 250.289 C 316.589 250.367,318.523 250.366,319.643 250.287 C 320.763 250.209,319.746 250.145,317.383 250.146 C 315.020 250.147,314.103 250.211,315.346 250.289 M348.608 255.176 L 347.461 256.445 348.730 255.298 C 349.429 254.667,350.000 254.096,350.000 254.028 C 350.000 253.727,349.678 253.992,348.608 255.176 M343.338 260.059 L 341.992 261.523 343.457 260.177 C 344.820 258.924,345.101 258.594,344.803 258.594 C 344.738 258.594,344.079 259.253,343.338 260.059 M103.906 263.867 C 103.639 264.189,103.557 264.453,103.724 264.453 C 103.891 264.453,103.709 264.805,103.320 265.234 C 102.544 266.093,101.733 266.305,102.200 265.527 C 102.394 265.204,102.267 265.223,101.823 265.583 C 101.455 265.882,101.244 266.218,101.354 266.328 C 101.615 266.589,100.797 267.578,100.320 267.578 C 100.119 267.578,100.086 267.358,100.247 267.090 C 100.441 266.767,100.314 266.786,99.870 267.146 C 99.502 267.445,99.292 267.782,99.405 267.895 C 99.669 268.159,98.438 269.531,97.939 269.531 C 97.731 269.531,97.799 269.224,98.090 268.848 C 98.521 268.291,98.457 268.302,97.747 268.908 C 96.797 269.719,96.585 270.142,97.363 269.675 C 97.695 269.475,97.680 269.593,97.315 270.042 C 96.821 270.651,94.702 270.703,70.315 270.703 L 43.852 270.703 43.388 273.145 C 43.133 274.487,42.833 275.897,42.723 276.277 C 42.531 276.934,43.936 276.963,71.418 276.863 C 88.580 276.800,100.227 276.901,100.098 277.111 C 99.978 277.305,100.094 277.332,100.356 277.170 C 100.619 277.008,100.733 276.775,100.611 276.653 C 100.343 276.385,101.538 275.000,102.037 275.000 C 102.231 275.000,102.261 275.220,102.104 275.488 C 101.947 275.757,102.202 275.641,102.670 275.230 C 103.138 274.820,103.431 274.395,103.322 274.285 C 103.071 274.035,104.297 272.656,104.771 272.656 C 104.965 272.656,104.992 272.876,104.831 273.145 C 104.624 273.488,104.730 273.477,105.186 273.107 C 105.543 272.818,105.796 272.378,105.749 272.131 C 105.702 271.883,105.928 271.663,106.250 271.642 C 106.572 271.621,107.100 271.489,107.422 271.347 C 107.744 271.206,154.590 271.047,211.523 270.994 L 315.039 270.897 211.309 270.800 C 154.257 270.747,107.410 270.835,107.204 270.996 C 106.999 271.157,107.013 271.070,107.236 270.803 C 107.759 270.175,315.692 269.880,315.317 270.508 C 315.189 270.723,315.386 270.654,315.755 270.354 C 316.123 270.055,316.331 269.717,316.217 269.602 C 315.956 269.341,317.582 267.578,318.085 267.578 C 318.288 267.578,318.221 267.886,317.936 268.262 C 317.650 268.638,318.066 268.342,318.859 267.605 C 319.652 266.868,320.215 266.179,320.110 266.074 C 319.866 265.829,321.103 264.453,321.568 264.453 C 321.762 264.453,321.793 264.673,321.636 264.941 C 321.479 265.210,321.732 265.095,322.198 264.686 C 322.665 264.276,323.047 263.793,323.047 263.611 C 323.047 262.950,104.456 263.205,103.906 263.867 M322.590 263.869 C 322.270 264.189,103.964 264.285,104.162 263.965 C 104.262 263.804,153.493 263.672,213.565 263.672 C 273.637 263.672,322.698 263.760,322.590 263.869 M327.130 275.098 L 325.586 276.758 327.246 275.214 C 328.790 273.778,329.086 273.438,328.790 273.438 C 328.726 273.438,327.979 274.185,327.130 275.098 M41.797 277.441 C 41.797 277.603,54.849 277.693,70.801 277.643 C 86.753 277.593,95.146 277.506,89.453 277.449 C 62.500 277.179,41.797 277.176,41.797 277.441 M321.661 280.176 L 320.117 281.836 321.777 280.292 C 323.321 278.856,323.617 278.516,323.321 278.516 C 323.258 278.516,322.511 279.263,321.661 280.176 M211.626 286.206 C 211.252 286.304,210.549 286.307,210.063 286.214 C 209.577 286.120,209.883 286.040,210.742 286.036 C 211.602 286.032,211.999 286.108,211.626 286.206 M238.587 286.224 C 237.574 286.304,235.816 286.305,234.681 286.226 C 233.546 286.147,234.375 286.081,236.523 286.080 C 238.672 286.079,239.601 286.144,238.587 286.224 M243.066 286.213 C 242.583 286.306,241.792 286.306,241.309 286.213 C 240.825 286.120,241.221 286.044,242.188 286.044 C 243.154 286.044,243.550 286.120,243.066 286.213 M252.063 286.223 C 251.156 286.305,249.574 286.306,248.547 286.225 C 247.520 286.144,248.262 286.077,250.195 286.076 C 252.129 286.075,252.969 286.141,252.063 286.223 M259.863 286.220 C 259.165 286.307,258.022 286.307,257.324 286.220 C 256.626 286.133,257.197 286.063,258.594 286.063 C 259.990 286.063,260.562 286.133,259.863 286.220 M269.238 286.220 C 268.540 286.307,267.397 286.307,266.699 286.220 C 266.001 286.133,266.572 286.063,267.969 286.063 C 269.365 286.063,269.937 286.133,269.238 286.220 M273.730 286.207 C 273.354 286.305,272.739 286.305,272.363 286.207 C 271.987 286.109,272.295 286.028,273.047 286.028 C 273.799 286.028,274.106 286.109,273.730 286.207 M277.637 286.217 C 277.046 286.307,276.079 286.307,275.488 286.217 C 274.897 286.128,275.381 286.055,276.563 286.055 C 277.744 286.055,278.228 286.128,277.637 286.217 M282.910 286.220 C 282.212 286.307,281.069 286.307,280.371 286.220 C 279.673 286.133,280.244 286.063,281.641 286.063 C 283.037 286.063,283.608 286.133,282.910 286.220 M292.676 286.228 C 291.118 286.302,288.569 286.302,287.012 286.228 C 285.454 286.153,286.729 286.093,289.844 286.093 C 292.959 286.093,294.233 286.153,292.676 286.228 M298.730 286.217 C 298.140 286.307,297.173 286.307,296.582 286.217 C 295.991 286.128,296.475 286.055,297.656 286.055 C 298.838 286.055,299.321 286.128,298.730 286.217 M301.855 286.207 C 301.479 286.305,300.864 286.305,300.488 286.207 C 300.112 286.109,300.420 286.028,301.172 286.028 C 301.924 286.028,302.231 286.109,301.855 286.207 M111.511 290.332 L 109.180 292.773 111.621 290.442 C 112.964 289.160,114.063 288.061,114.063 288.001 C 114.063 287.712,113.677 288.064,111.511 290.332 M102.130 299.316 L 100.586 300.977 102.246 299.432 C 103.790 297.996,104.086 297.656,103.790 297.656 C 103.726 297.656,102.979 298.403,102.130 299.316 M22.388 301.074 C 25.785 301.139,31.234 301.139,34.497 301.073 C 37.760 301.008,34.980 300.955,28.320 300.955 C 21.660 300.955,18.990 301.009,22.388 301.074 M55.595 301.074 C 63.937 301.133,77.472 301.133,85.674 301.074 C 93.875 301.015,87.051 300.967,70.508 300.967 C 53.965 300.967,47.254 301.015,55.595 301.074 " stroke="none" fill="#f8fc05" fill-rule="evenodd"></path></g></svg>